{"title":"Reservoir Dogs.1992.BRRip.x264.AC3[5.1]-VGL","uid":4890368,"size":1301645091,"categoryP":"video","categoryS":"movies","magnet":"?xt=urn:btih:eb630fa0fa5926c3d65f05f94b52987227a0b361&amp;dn=Reservoir+Dogs.1992.BRRip.x264.AC3%5B5.1%5D-VGL&amp;tr=udp%3A%2F%2Ftracker.openbittorrent.com%3A80&amp;tr=udp%3A%2F%2Fopen.demonii.com%3A1337&amp;tr=udp%3A%2F%2Ftracker.coppersurfer.tk%3A6969&amp;tr=udp%3A%2F%2Fexodus.desync.com%3A6969","seeders":0,"leechers":0,"uploader":"esterz","files":-1,"time":1241913833,"description":"\n                   &lt;a href=&quot; http://www.imdb.com/title/tt0105236/&quot; rel=&quot;nofollow&quot; target=&quot;_NEW&quot;&gt; http://www.imdb.com/title/tt0105236/&lt;/a&gt;\n\n                 Reservoir Dogs.1992.BRRip.x264.AC3[5.1]-VGL\n\n\n\nMovie Title: Reservoir Dogs\n\nDirector: Quentin Tarantino\n\nCast: Harvey Keitel, Tim Roth, Michael Madsen, Steve Buscemi\n\n\n\nThis is a BRRip of the film in MKV format (Matroska container). You will need VLC Player to view the movie.\n\nFor even better results, and in order to enable H.264 playback in Windows Media Player the following software is suggested:\n\nCoreAVC\nHaali Media Splitter\nAC3 Filter\nVobSub &amp; VSFilter (For the Subtitles)\n\nRecommended Codec Pack: CCCP - Combined Community Codec Pack\n\n\n\n-------------------------------------------------------------------------------\n\nLanguage: English\n\nOptional Subtitles [Included in the Matroska Container]:\nEnglish, Spanish, French, Italian, Portuguese, Dutch, Swedish, Greek, Danish, Turkish, Norwegian\n\n-------------------------------------------------------------------------------\n\n\nGeneral\nFormat                           : Matroska\nFile size                        : 1.21 GiB\nDuration                         : 1h 39mn\nOverall bit rate                 : 1 751 Kbps\n\nVideo\nID                               : 1\nFormat                           : AVC\nFormat/Info                      : Advanced Video Codec\nFormat profile                   : &lt;a class=&quot;__cf_email__&quot; href=&quot;/cdn-cgi/l/email-protection&quot; data-cfemail=&quot;6129080609212d524f50&quot;&gt;[email&amp;#160;protected]&lt;/a&gt;&lt;script data-cfhash='f9e31' type=&quot;text/javascript&quot;&gt;\n/* &lt;![CDATA[ */!function(){try{var t=&quot;currentScript&quot;in document?document.currentScript:function(){for(var t=document.getElementsByTagName(&quot;script&quot;),e=t.length;e--;)if(t[e].getAttribute(&quot;data-cfhash&quot;))return t[e]}();if(t&amp;&amp;t.previousSibling){var e,r,n,i,c=t.previousSibling,a=c.getAttribute(&quot;data-cfemail&quot;);if(a){for(e=&quot;&quot;,r=parseInt(a.substr(0,2),16),n=2;a.length-n;n+=2)i=parseInt(a.substr(n,2),16)^r,e+=String.fromCharCode(i);e=document.createTextNode(e),c.parentNode.replaceChild(e,c)}t.parentNode.removeChild(t);}}catch(u){}}()/* ]]&gt; */&lt;/script&gt;\nFormat settings, CABAC           : Yes\nFormat settings, ReFrames        : 6 frames\nMuxing mode                      : Container profile=&lt;a class=&quot;__cf_email__&quot; href=&quot;/cdn-cgi/l/email-protection&quot; data-cfemail=&quot;83d6ede8edecf4edc3b0adb2&quot;&gt;[email&amp;#160;protected]&lt;/a&gt;&lt;script data-cfhash='f9e31' type=&quot;text/javascript&quot;&gt;\n/* &lt;![CDATA[ */!function(){try{var t=&quot;currentScript&quot;in document?document.currentScript:function(){for(var t=document.getElementsByTagName(&quot;script&quot;),e=t.length;e--;)if(t[e].getAttribute(&quot;data-cfhash&quot;))return t[e]}();if(t&amp;&amp;t.previousSibling){var e,r,n,i,c=t.previousSibling,a=c.getAttribute(&quot;data-cfemail&quot;);if(a){for(e=&quot;&quot;,r=parseInt(a.substr(0,2),16),n=2;a.length-n;n+=2)i=parseInt(a.substr(n,2),16)^r,e+=String.fromCharCode(i);e=document.createTextNode(e),c.parentNode.replaceChild(e,c)}t.parentNode.removeChild(t);}}catch(u){}}()/* ]]&gt; */&lt;/script&gt;\nCodec ID                         : V_MPEG4/ISO/AVC\nDuration                         : 1h 39mn\nBit rate                         : 1 257 Kbps\nNominal bit rate                 : 1 300 Kbps\nWidth                            : 720 pixels\nHeight                           : 304 pixels\nDisplay aspect ratio             : 2.35\nFrame rate                       : 23.976 fps\nResolution                       : 24 bits\nColorimetry                      : 4:2:0\nScan type                        : Progressive\nBits/(Pixel*Frame)               : 0.240\nStream size                      : 890 MiB (72%)\nWriting library                  : x264 core 67 r1145M d2e1e1c\n\nAudio\nID                               : 2\nFormat                           : AC-3\nFormat/Info                      : Audio Coding 3\nCodec ID                         : A_AC3\nDuration                         : 1h 39mn\nBit rate mode                    : Constant\nBit rate                         : 448 Kbps\nChannel(s)                       : 6 channels\nChannel positions                : Front: L C R, Surround: L R, LFE\nSampling rate                    : 48.0 KHz\nStream size                      : 318 MiB (26%)\nLanguage                         : English\n\n\nSource: Reservoir.Dogs.1992.720p.BluRay.x264-REVEiLLE\n\n\nScreenshots: &lt;a href=&quot;\nhttp://www.g4vault.com/images/0chrbod1b43380o7kthh.png&quot; rel=&quot;nofollow&quot; target=&quot;_NEW&quot;&gt;\nhttp://www.g4vault.com/images/0chrbod1b43380o7kthh.png&lt;/a&gt; &lt;a href=&quot;\nhttp://www.g4vault.com/images/0p39qzj85dadhtatjri.png&quot; rel=&quot;nofollow&quot; target=&quot;_NEW&quot;&gt;\nhttp://www.g4vault.com/images/0p39qzj85dadhtatjri.png&lt;/a&gt; &lt;a href=&quot;\nhttp://www.g4vault.com/images/t96odi1yrp9o2poylajg.png&quot; rel=&quot;nofollow&quot; target=&quot;_NEW&quot;&gt;\nhttp://www.g4vault.com/images/t96odi1yrp9o2poylajg.png&lt;/a&gt; &lt;a href=&quot;\nhttp://www.g4vault.com/images/7y4cf3rf5apqaphpi14n.png&quot; rel=&quot;nofollow&quot; target=&quot;_NEW&quot;&gt;\nhttp://www.g4vault.com/images/7y4cf3rf5apqaphpi14n.png&lt;/a&gt; &lt;a href=&quot;\nhttp://www.g4vault.com/images/mux71s19q7hd0n8fcvzr.png&quot; rel=&quot;nofollow&quot; target=&quot;_NEW&quot;&gt;\nhttp://www.g4vault.com/images/mux71s19q7hd0n8fcvzr.png&lt;/a&gt;\n\n\n\nInstructions using the subtitle streams\n\n----------------------------------------------------\nViewing the subtitles with VLC Player:\n----------------------------------------------------\n\nVideo--&gt;Subtitles Track--&gt;Select\n\nSubtitle Screenshot for VLC Player: &lt;a href=&quot;\nhttp://www.lookpic.com/files/1450.JPG&quot; rel=&quot;nofollow&quot; target=&quot;_NEW&quot;&gt;\nhttp://www.lookpic.com/files/1450.JPG&lt;/a&gt;\n\n--------------------------------------------------------------\nViewing the subtitles with Haali Media Splitter\n--------------------------------------------------------------\n\nRight click on Haali tray icon--&gt;Select subtitles\n\n**NOTE**\nVobSub &amp; VSFilter must be installed\n\nSubtitle Screenshot for Haali Media Splitter: &lt;a href=&quot;\nhttp://www.lookpic.com/files/2367.JPG&quot; rel=&quot;nofollow&quot; target=&quot;_NEW&quot;&gt;\nhttp://www.lookpic.com/files/2367.JPG&lt;/a&gt;\n\n\n                     \n                            Distributed By VGL","torrent":{"xt":"urn:btih:eb630fa0fa5926c3d65f05f94b52987227a0b361","amp;dn":"Reservoir+Dogs.1992.BRRip.x264.AC3%5B5.1%5D-VGL","amp;tr":["udp%3A%2F%2Ftracker.openbittorrent.com%3A80","udp%3A%2F%2Fopen.demonii.com%3A1337","udp%3A%2F%2Ftracker.coppersurfer.tk%3A6969","udp%3A%2F%2Fexodus.desync.com%3A6969"],"infoHash":"eb630fa0fa5926c3d65f05f94b52987227a0b361","infoHashBuffer":{"type":"Buffer","data":[235,99,15,160,250,89,38,195,214,95,5,249,75,82,152,114,39,160,179,97]},"announce":[],"urlList":[]}}